# File created by Blade
# Date/Time:  Wed Apr 08 17:00:23 2015
#---------------------------------------------------------
:version 1.10
:name HOM
:units
  mass 1.0
  length 1.000000
  angle deg
:documentation
     Acclaim Skeleton File
:root
   axis xyz
   order TX TY TZ RX RY RZ
   position 0.000000 0.000000 0.000000
   orientation 0 0 0
:bonedata
   begin
      id 1
      name Spine_dum
      direction 0.000000 1.000000 0.000000
      length 5.893853
      axis 0.0 0.0 0.0 xyz
   end
   begin
      id 2
      name LeftUpLeg_dum
      direction 1.000000 0.000000 0.000000
      length 3.697939
      axis 0.0 0.0 0.0 xyz
   end
   begin
      id 3
      name RightUpLeg_dum
      direction -1.000000 0.000000 0.000000
      length 3.697939
      axis 0.0 0.0 0.0 xyz
   end
   begin
      id 4
      name Spine
      direction 0.000000 1.000000 0.000000
      length 0.000000
      axis 0.0 0.0 0.0 xyz
      dof rx ry rz
   end
   begin
      id 5
      name Spine_dum1
      direction 0.000000 1.000000 0.000000
      length 16.447146
      axis 0.0 0.0 0.0 xyz
   end
   begin
      id 6
      name Spine_dum2
      direction 0.000000 1.000000 0.000000
      length 10.900383
      axis 0.0 0.0 0.0 xyz
   end
   begin
      id 7
      name Spine_dum3
      direction 0.000000 1.000000 0.000000
      length 10.900383
      axis 0.0 0.0 0.0 xyz
   end
   begin
      id 8
      name Head
      direction 0.000000 1.000000 0.000000
      length 4.527550
      axis 0.0 0.0 0.0 xyz
      dof rx ry rz
   end
   begin
      id 9
      name LeftShoulder
      direction 1.000000 0.000000 0.000000
      length 8.219464
      axis 0.0 0.0 -90.0 xyz
      dof rx ry rz
   end
   begin
      id 10
      name LeftArm
      direction 1.000000 0.000000 0.000000
      length 11.094937
      axis 0.0 0.0 -90.0 xyz
      dof rx ry rz
   end
   begin
      id 11
      name LeftForeArm
      direction 1.000000 0.000000 0.000000
      length 9.103875
      axis 0.0 0.0 -90.0 xyz
      dof ry rz rx
   end
   begin
      id 12
      name LeftHand
      direction 0.000000 0.000000 0.000000
      length 0.000000
      axis 0.0 0.0 -90.0 xyz
      dof rx ry rz
   end
   begin
      id 13
      name LeftHand_dum1
      direction 0.000000 0.000000 0.000000
      length 0.000000
      axis 0.0 0.0 -90.0 xyz
   end
   begin
      id 14
      name LeftHand_dum2
      direction 1.000000 0.000000 0.000000
      length 3.937000
      axis 0.0 0.0 -90.0 xyz
   end
   begin
      id 15
      name LeftHandThumb1
      direction 0.000000 0.000000 1.000000
      length 3.937000
      axis 0.0 0.0 -90.0 xyz
      dof rx rz ry
   end
   begin
      id 16
      name RightShoulder
      direction -1.000000 0.000000 0.000000
      length 8.219464
      axis 0.0 0.0 90.0 xyz
      dof rx ry rz
   end
   begin
      id 17
      name RightArm
      direction -1.000000 0.000000 0.000000
      length 11.094937
      axis 0.0 0.0 90.0 xyz
      dof rx ry rz
   end
   begin
      id 18
      name RightForeArm
      direction -1.000000 0.000000 0.000000
      length 9.103875
      axis 0.0 0.0 90.0 xyz
      dof ry rz rx
   end
   begin
      id 19
      name RightHand
      direction 0.000000 0.000000 0.000000
      length 0.000000
      axis 0.0 0.0 90.0 xyz
      dof rx ry rz
   end
   begin
      id 20
      name RightHand_dum1
      direction 0.000000 0.000000 0.000000
      length 0.000000
      axis 0.0 0.0 90.0 xyz
   end
   begin
      id 21
      name RightHand_dum2
      direction -1.000000 0.000000 0.000000
      length 3.937000
      axis 0.0 0.0 90.0 xyz
   end
   begin
      id 22
      name RightHandThumb1
      direction 0.000000 0.000000 1.000000
      length 3.937000
      axis 0.0 0.0 90.0 xyz
      dof rx rz ry
   end
   begin
      id 23
      name LeftUpLeg
      direction 0.000000 -1.000000 0.000000
      length 16.181467
      axis 0.0 0.0 0.0 xyz
      dof rx ry rz
   end
   begin
      id 24
      name LeftLeg
      direction 0.000000 -1.000000 0.000000
      length 16.501392
      axis 0.0 0.0 0.0 xyz
      dof rx ry rz
   end
   begin
      id 25
      name LeftFoot
      direction 0.000000 -0.258819 0.965926
      length 6.408245
      axis 15.0 0.0 0.0 xyz
      dof rx ry rz
   end
   begin
      id 26
      name LeftToeBase
      direction 0.000000 0.000000 1.000000
      length 2.952750
      axis 0.0 0.0 0.0 xyz
      dof rx ry rz
   end
   begin
      id 27
      name RightUpLeg
      direction 0.000000 -1.000000 0.000000
      length 16.181467
      axis 0.0 0.0 0.0 xyz
      dof rx ry rz
   end
   begin
      id 28
      name RightLeg
      direction 0.000000 -1.000000 0.000000
      length 16.501392
      axis 0.0 0.0 0.0 xyz
      dof rx ry rz
   end
   begin
      id 29
      name RightFoot
      direction 0.000000 -0.258819 0.965926
      length 6.408245
      axis 15.0 0.0 0.0 xyz
      dof rx ry rz
   end
   begin
      id 30
      name RightToeBase
      direction 0.000000 0.000000 1.000000
      length 2.952750
      axis 0.0 0.0 0.0 xyz
      dof rx ry rz
   end
:hierarchy
   begin
      root Spine_dum LeftUpLeg_dum RightUpLeg_dum
      Spine_dum Spine
      LeftUpLeg_dum LeftUpLeg
      RightUpLeg_dum RightUpLeg
      Spine Spine_dum1 Spine_dum2 Spine_dum3
      Spine_dum1 Head
      Spine_dum2 LeftShoulder
      Spine_dum3 RightShoulder
      LeftShoulder LeftArm
      LeftArm LeftForeArm
      LeftForeArm LeftHand
      LeftHand LeftHand_dum1 LeftHand_dum2
      LeftHand_dum1 LeftHandThumb1
      RightShoulder RightArm
      RightArm RightForeArm
      RightForeArm RightHand
      RightHand RightHand_dum1 RightHand_dum2
      RightHand_dum1 RightHandThumb1
      LeftUpLeg LeftLeg
      LeftLeg LeftFoot
      LeftFoot LeftToeBase
      RightUpLeg RightLeg
      RightLeg RightFoot
      RightFoot RightToeBase
   end

# File created by Blade
# Date/Time:  Wed Apr 08 17:00:17 2015
# Frame Rate: 120.000 fps
#------------------------------------------------------
:FULLY-SPECIFIED
:DEGREES
617
root 1.420088 35.717178 2.894616 -29.721085 -79.751833 17.314347
Spine 10.585952 4.614018 -8.648757
Head -0.293839 -1.832458 -8.731762
LeftShoulder 9.009145 -3.770907 26.438118
LeftArm 91.261430 46.231252 -47.961950
LeftForeArm -58.269801 -0.000000 88.340297
LeftHand -23.348903 0.000000 8.220349
LeftHandThumb1 -26.253704 0.000000 33.147579
RightShoulder 7.049667 -29.226849 -32.408375
RightArm 74.835990 15.588053 -0.133693
RightForeArm -21.266457 -0.000000 69.554107
RightHand 5.847575 -0.000000 27.818982
RightHandThumb1 -24.326973 -0.000000 -32.862282
LeftUpLeg 13.650164 6.310021 4.840965
LeftLeg 12.140027 -0.000000 -0.000000
LeftFoot -13.808205 -0.517779 -10.446232
LeftToeBase 8.696812 -0.000000 -0.000000
RightUpLeg 22.074380 -15.803189 -17.018164
RightLeg 2.511225 -0.000000 -0.000000
RightFoot -12.260136 4.236405 20.133634
RightToeBase 14.412671 -0.000000 -0.000000
618
root 1.423162 35.716874 2.895820 -29.615879 -79.661803 17.220205
Spine 10.627763 4.646407 -8.696074
Head -0.385457 -1.990944 -8.593064
LeftShoulder 8.998044 -3.766590 26.381263
LeftArm 91.211909 46.256834 -47.942006
LeftForeArm -58.272746 -0.000000 88.365777
LeftHand -23.179465 -0.000000 8.230275
LeftHandThumb1 -26.253704 0.000000 33.147579
RightShoulder 7.017223 -29.299519 -32.405730
RightArm 75.029705 15.790650 -0.063785
RightForeArm -21.302846 -0.000000 71.137834
RightHand 5.630187 -0.000000 27.884550
RightHandThumb1 -24.326973 -0.000000 -32.862282
LeftUpLeg 13.603269 6.252496 4.815179
LeftLeg 12.165438 -0.000000 -0.000000
LeftFoot -13.801477 -0.546705 -10.424561
LeftToeBase 8.683374 -0.000000 -0.000000
RightUpLeg 22.089249 -15.849780 -17.038812
RightLeg 2.512604 -0.000000 -0.000000
RightFoot -12.282350 4.205184 20.152449
RightToeBase 14.422937 -0.000000 -0.000000
619
root 1.425949 35.716332 2.896831 -29.532029 -79.560365 17.139677
Spine 10.680387 4.700450 -8.749920
Head -0.475047 -2.177588 -8.442888
LeftShoulder 8.992094 -3.702108 26.310343
LeftArm 91.291406 46.262228 -47.835241
LeftForeArm -58.217578 -0.000000 88.323780
LeftHand -22.989064 0.000000 8.048040
LeftHandThumb1 -26.253704 0.000000 33.147579
RightShoulder 6.974503 -29.369642 -32.410214
RightArm 75.231323 16.023692 -0.016255
RightForeArm -21.317940 0.000000 72.649364
RightHand 5.477959 -0.000000 28.126518
RightHandThumb1 -24.326973 -0.000000 -32.862282
LeftUpLeg 13.563328 6.183647 4.782835
LeftLeg 12.189292 -0.000000 -0.000000
LeftFoot -13.788140 -0.581844 -10.432194
LeftToeBase 8.686604 -0.000000 -0.000000
RightUpLeg 22.118393 -15.911496 -17.073046
RightLeg 2.510318 -0.000000 -0.000000
RightFoot -12.302749 4.174645 20.149213
RightToeBase 14.410176 -0.000000 -0.000000
620
root 1.428478 35.715230 2.898167 -29.407608 -79.459188 17.022073
Spine 10.733388 4.781440 -8.798322
Head -0.575945 -2.411493 -8.269043
LeftShoulder 9.025124 -3.684114 26.254637
LeftArm 91.198332 46.319226 -47.890482
LeftForeArm -58.126035 -0.000000 88.373185
LeftHand -23.111456 -0.000000 8.119147
LeftHandThumb1 -26.253704 0.000000 33.147579
RightShoulder 6.905099 -29.479838 -32.358926
RightArm 75.416246 16.319720 0.013547
RightForeArm -21.499938 -0.000000 74.173832
RightHand 5.325142 -0.000000 28.388255
RightHandThumb1 -24.326973 -0.000000 -32.862282
LeftUpLeg 13.523654 6.125478 4.761434
LeftLeg 12.207852 -0.000000 -0.000000
LeftFoot -13.784841 -0.629381 -10.423880
LeftToeBase 8.677659 -0.000000 -0.000000
RightUpLeg 22.139761 -15.978124 -17.102527
RightLeg 2.518352 -0.000000 -0.000000
RightFoot -12.327883 4.153871 20.155716
RightToeBase 14.408431 -0.000000 -0.000000
621
root 1.430695 35.713990 2.897911 -29.281483 -79.354201 16.888100
Spine 10.799730 4.867646 -8.852862
Head -0.663485 -2.655445 -8.075592
LeftShoulder 9.045739 -3.614283 26.210698
LeftArm 91.184515 46.336957 -47.898369
LeftForeArm -58.087817 -0.000000 88.393012
LeftHand -23.102521 -0.000000 8.149003
LeftHandThumb1 -26.253704 0.000000 33.147579
RightShoulder 6.840980 -29.602307 -32.304612
RightArm 75.550578 16.616209 0.032424
RightForeArm -21.717174 0.000000 75.696392
RightHand 5.215259 -0.000000 28.397394
RightHandThumb1 -24.326973 -0.000000 -32.862282
LeftUpLeg 13.490721 6.063238 4.745165
LeftLeg 12.240750 -0.000000 -0.000000
LeftFoot -13.795623 -0.669288 -10.424731
LeftToeBase 8.707168 -0.000000 -0.000000
RightUpLeg 22.181548 -16.044843 -17.130058
RightLeg 2.518778 -0.000000 -0.000000
RightFoot -12.350087 4.118735 20.148165
RightToeBase 14.389796 -0.000000 -0.000000
